<?xml version="1.0" encoding="UTF-8" standalone="no"?>
<!DOCTYPE svg PUBLIC "-//W3C//DTD SVG 1.1//EN" "http://www.w3.org/Graphics/SVG/1.1/DTD/svg11.dtd">
<svg width="100%" height="100%" viewBox="0 0 720 150" version="1.1" xmlns="http://www.w3.org/2000/svg" xmlns:xlink="http://www.w3.org/1999/xlink" xml:space="preserve" xmlns:serif="http://www.serif.com/" style="fill-rule:evenodd;clip-rule:evenodd;stroke-linejoin:round;stroke-miterlimit:2;">
    <g transform="matrix(1,0,0,1,0,-285)">
        <g transform="matrix(1.66245,0,0,1.66245,-238.967,-213.664)">
            <path d="M146.02,387.1L146.02,303.1L182.5,303.1C201.22,303.1 213.34,312.58 213.34,329.86C213.34,343.18 205.18,351.58 193.3,353.98L216.7,387.1L200.26,387.1L179.02,356.38L159.82,356.38L159.82,387.1L146.02,387.1ZM181.06,345.22C193.06,345.22 199.54,339.94 199.54,329.98L199.54,329.5C199.54,319.54 193.06,314.26 181.06,314.26L159.82,314.26L159.82,345.22L181.06,345.22Z" style="fill-rule:nonzero;"/>
            <path d="M220.66,387.1L255.34,303.1L266.86,303.1L301.54,387.1L287.5,387.1L278.62,365.38L243.58,365.38L234.7,387.1L220.66,387.1ZM274.06,353.74L261.1,321.82L248.14,353.74L274.06,353.74Z" style="fill-rule:nonzero;"/>
            <rect x="309.46" y="303.1" width="13.8" height="84" style="fill-rule:nonzero;"/>
            <path d="M338.86,387.1L338.86,303.1L371.02,303.1C396.7,303.1 413.26,316.42 413.26,343.9L413.26,345.58C413.26,373.42 396.7,387.1 371.02,387.1L338.86,387.1ZM369.46,375.94C389.02,375.94 399.34,365.26 399.34,346.18L399.34,343.3C399.34,324.1 389.02,314.26 369.46,314.26L352.66,314.26L352.66,375.94L369.46,375.94Z" style="fill-rule:nonzero;"/>
            <path d="M416.86,387.1L451.54,303.1L463.06,303.1L497.74,387.1L483.7,387.1L474.82,365.38L439.78,365.38L430.9,387.1L416.86,387.1ZM470.25,353.74L457.29,321.82L444.33,353.74L470.25,353.74Z" style="fill-rule:nonzero;"/>
            <path d="M505.66,387.1L505.66,303.1L542.14,303.1C560.86,303.1 572.98,312.58 572.98,329.86C572.98,343.18 564.82,351.58 552.94,353.98L576.34,387.1L559.9,387.1L538.66,356.38L519.46,356.38L519.46,387.1L505.66,387.1ZM540.69,345.22C552.69,345.22 559.17,339.94 559.17,329.98L559.17,329.5C559.17,319.54 552.69,314.26 540.69,314.26L519.45,314.26L519.45,345.22L540.69,345.22Z" style="fill-rule:nonzero;"/>
        </g>
    </g>
</svg>
