<?xml version="1.0" encoding="UTF-8"?>
<svg id="Ebene_1" data-name="Ebene 1" xmlns="http://www.w3.org/2000/svg" viewBox="0 0 375.61 84.19">
  <path d="M22.78,68.67c-4.62,0-8.57-.67-11.84-2.02-3.27-1.34-5.81-3.21-7.62-5.6-1.81-2.39-2.91-5.16-3.28-8.32l-.05-.42h13.36l.09.42c.44,1.97,1.42,3.5,2.95,4.59,1.53,1.09,3.66,1.64,6.38,1.64,1.75,0,3.23-.21,4.45-.63s2.16-1.02,2.84-1.8c.67-.78,1.01-1.72,1.01-2.81v-.05c0-1.34-.48-2.42-1.45-3.23-.97-.81-2.69-1.48-5.16-2.02l-8.53-1.83c-3.25-.69-5.97-1.68-8.16-2.98-2.19-1.3-3.83-2.91-4.92-4.83-1.09-1.92-1.64-4.13-1.64-6.63v-.05c0-3.22.87-6,2.6-8.34s4.19-4.16,7.36-5.46c3.17-1.3,6.88-1.95,11.13-1.95s8.21.71,11.32,2.13c3.11,1.42,5.5,3.34,7.17,5.74,1.67,2.41,2.55,5.08,2.65,8.02v.47h-12.61l-.05-.38c-.22-1.78-1.05-3.27-2.51-4.48-1.45-1.2-3.45-1.8-5.98-1.8-1.56,0-2.92.22-4.08.66-1.16.44-2.05,1.05-2.67,1.83-.63.78-.94,1.72-.94,2.81v.05c0,.84.21,1.6.63,2.27.42.67,1.13,1.26,2.13,1.76,1,.5,2.34.94,4.03,1.31l8.53,1.83c5.28,1.09,9.07,2.73,11.37,4.92,2.3,2.19,3.45,5.13,3.45,8.81v.05c0,3.28-.94,6.14-2.81,8.58s-4.46,4.34-7.76,5.7c-3.3,1.36-7.1,2.04-11.41,2.04Z"/>
  <path d="M59.16,84.19c-1.34,0-2.64-.06-3.89-.19-1.25-.12-2.28-.27-3.09-.42v-10.17c.47.09,1.1.19,1.9.3.8.11,1.69.16,2.7.16,2.06,0,3.69-.34,4.88-1.03,1.19-.69,2.08-1.88,2.67-3.56l.56-1.64-17.72-50.25h15.05l11.34,42-1.83-2.72h2.58l-1.83,2.72,11.3-42h14.48l-17.25,51.14c-1.31,3.94-2.96,7.05-4.95,9.35-1.98,2.3-4.37,3.92-7.15,4.88-2.78.95-6.03,1.43-9.75,1.43Z"/>
  <path d="M103.03,67.64V17.39h13.69v8.25h.28c1.31-2.88,3.25-5.14,5.81-6.8,2.56-1.66,5.73-2.48,9.52-2.48,5.53,0,9.8,1.66,12.82,4.99,3.02,3.33,4.52,7.95,4.52,13.85v32.44h-13.69v-29.58c0-3.28-.77-5.83-2.32-7.64-1.55-1.81-3.85-2.72-6.91-2.72-2.03,0-3.8.47-5.3,1.41s-2.66,2.23-3.49,3.89c-.83,1.66-1.24,3.58-1.24,5.77v28.88h-13.69Z"/>
  <path d="M178.31,68.67c-5.56,0-9.69-1.17-12.38-3.52-2.69-2.34-4.03-6.2-4.03-11.58v-25.88h-6.98v-10.31h6.98V5.11h13.83v12.28h9.19v10.31h-9.19v24.38c0,2.34.52,3.98,1.57,4.9,1.05.92,2.6,1.38,4.66,1.38.62,0,1.17-.02,1.64-.07s.91-.1,1.31-.16v10.03c-.75.12-1.68.24-2.79.35-1.11.11-2.38.16-3.82.16Z"/>
  <path d="M192.8,67.64V0h13.69v26.06h.28c1.31-3.12,3.27-5.52,5.88-7.2,2.61-1.67,5.79-2.51,9.54-2.51s6.8.8,9.42,2.41c2.62,1.61,4.65,3.88,6.07,6.82,1.42,2.94,2.13,6.44,2.13,10.5v31.55h-13.73v-28.73c0-3.5-.83-6.24-2.48-8.23-1.66-1.98-4.05-2.98-7.17-2.98-2,0-3.74.48-5.23,1.43-1.48.95-2.64,2.27-3.47,3.94-.83,1.67-1.24,3.6-1.24,5.79v28.78h-13.69Z"/>
  <path d="M269.25,68.67c-4.62,0-8.57-.67-11.84-2.02s-5.8-3.21-7.62-5.6-2.91-5.16-3.28-8.32l-.05-.42h13.36l.09.42c.44,1.97,1.42,3.5,2.95,4.59,1.53,1.09,3.66,1.64,6.38,1.64,1.75,0,3.23-.21,4.45-.63s2.16-1.02,2.84-1.8c.67-.78,1.01-1.72,1.01-2.81v-.05c0-1.34-.48-2.42-1.45-3.23-.97-.81-2.69-1.48-5.16-2.02l-8.53-1.83c-3.25-.69-5.97-1.68-8.16-2.98-2.19-1.3-3.83-2.91-4.92-4.83s-1.64-4.13-1.64-6.63v-.05c0-3.22.87-6,2.6-8.34s4.19-4.16,7.36-5.46c3.17-1.3,6.88-1.95,11.13-1.95s8.21.71,11.32,2.13c3.11,1.42,5.5,3.34,7.17,5.74,1.67,2.41,2.55,5.08,2.65,8.02v.47h-12.61l-.05-.38c-.22-1.78-1.05-3.27-2.51-4.48-1.45-1.2-3.45-1.8-5.98-1.8-1.56,0-2.92.22-4.08.66-1.16.44-2.05,1.05-2.67,1.83-.62.78-.94,1.72-.94,2.81v.05c0,.84.21,1.6.63,2.27.42.67,1.13,1.26,2.13,1.76,1,.5,2.34.94,4.03,1.31l8.53,1.83c5.28,1.09,9.07,2.73,11.37,4.92,2.3,2.19,3.45,5.13,3.45,8.81v.05c0,3.28-.94,6.14-2.81,8.58s-4.46,4.34-7.76,5.7-7.1,2.04-11.41,2.04Z"/>
  <path d="M297,67.64v-7.78l25.27-31.88v-.28h-24.84v-10.31h40.55v8.67l-23.77,30.98v.28h24.33v10.31h-41.53Z"/>
  <path d="M346.27,67.64V17.39h13.69v8.77h.28c.75-3.09,2.11-5.5,4.08-7.22,1.97-1.72,4.42-2.58,7.36-2.58.75,0,1.47.05,2.16.14s1.28.22,1.78.38v12.09c-.56-.25-1.28-.45-2.16-.59s-1.81-.21-2.81-.21c-2.25,0-4.17.44-5.77,1.31-1.59.88-2.81,2.16-3.66,3.84s-1.27,3.75-1.27,6.19v28.12h-13.69Z"/>
</svg>