<?xml version="1.0" encoding="UTF-8" standalone="no"?>
<!DOCTYPE svg PUBLIC "-//W3C//DTD SVG 1.1//EN" "http://www.w3.org/Graphics/SVG/1.1/DTD/svg11.dtd">
<svg width="100%" height="100%" viewBox="0 0 32 32" version="1.1" xmlns="http://www.w3.org/2000/svg" xmlns:xlink="http://www.w3.org/1999/xlink" xml:space="preserve" xmlns:serif="http://www.serif.com/" style="fill-rule:evenodd;clip-rule:evenodd;stroke-linejoin:round;stroke-miterlimit:2;">
    <g transform="matrix(1.16907,0,0,1.10367,-3.51623,-1.19922)">
        <path d="M7.64,0.05L24.43,0.05C29.85,-0.36 31.94,1.74 31.54,7.16L31.54,23.95C31.58,27.54 31.52,29.38 28.6,30.71C26.36,31.56 10.43,30.82 7.64,31.06C4.05,31.1 2.21,31.04 0.88,28.12C0.03,25.88 0.77,9.94 0.53,7.16C0.12,1.73 2.21,-0.36 7.64,0.05Z" style="fill:rgb(214,254,81);fill-rule:nonzero;"/>
    </g>
    <g transform="matrix(1.01489,0,0,1.01141,-0.574186,0.134782)">
        <g>
            <g>
                <path d="M4.86,19.7L0,19.7C0.09,29.65 20.75,27.91 16.72,17.6C14.65,13.3 7.25,15.78 5.54,11.79C5.95,8.95 11.99,9.58 11.87,12.58L16.73,12.58C16.38,3.43 -2.95,5.06 0.94,14.68C3.02,18.7 10.79,16.59 12.13,20.45C11.78,24.13 4.65,23.39 4.86,19.7Z" style="fill-rule:nonzero;"/>
                <path d="M20.21,7.15L20.21,25.74L25.32,25.74C25.47,20.68 23.51,9.34 32.19,11.57L32.19,6.82C29.33,6.06 26.24,7.95 25.14,10.6L25.07,10.6L25.07,7.15L20.21,7.15Z" style="fill-rule:nonzero;"/>
            </g>
        </g>
    </g>
</svg>
