<?xml version="1.0" encoding="UTF-8" standalone="no"?>
<!DOCTYPE svg PUBLIC "-//W3C//DTD SVG 1.1//EN" "http://www.w3.org/Graphics/SVG/1.1/DTD/svg11.dtd">
<svg width="100%" height="100%" viewBox="0 0 720 720" version="1.1" xmlns="http://www.w3.org/2000/svg" xmlns:xlink="http://www.w3.org/1999/xlink" xml:space="preserve" xmlns:serif="http://www.serif.com/" style="fill-rule:evenodd;clip-rule:evenodd;stroke-linejoin:round;stroke-miterlimit:2;">
    <g transform="matrix(0.5625,0,0,1,0,-19.6042)">
        <g transform="matrix(1.56042,0,0,1.05812,-422.115,-2.34862)">
            <rect x="260.3" y="20.082" width="852.507" height="698.065"/>
        </g>
        <g transform="matrix(1.77778,0,0,1,-546.304,11.1954)">
            <path d="M475.269,148.05C447.911,148.05 424.873,156.147 408.674,170.845C392.475,185.543 383.116,206.841 383.116,233.243L383.116,236.584C383.115,262.985 392.475,284.283 408.674,298.981C424.873,313.679 447.911,321.777 475.269,321.777L567.7,321.777C595.042,321.777 618.073,313.679 634.272,298.981C650.471,284.284 659.838,262.985 659.854,236.584L659.854,233.243C659.854,206.841 650.494,185.543 634.295,170.845C618.097,156.147 595.058,148.05 567.7,148.05L475.269,148.05ZM681.291,150.834L681.291,318.714L756.74,318.714L756.74,257.464L870.33,257.464L870.33,318.714L945.779,318.714L945.779,150.834L870.33,150.834L870.33,202.618L756.74,202.618L756.74,150.834L681.291,150.834ZM490.303,204.567L552.666,204.567C561.901,204.567 569.626,206.91 575.044,211.561C580.461,216.213 583.57,223.173 583.57,232.408L583.57,237.141C583.57,246.39 580.461,253.351 575.044,257.998C569.626,262.646 561.901,264.981 552.666,264.981L490.303,264.981C481.068,264.981 473.343,262.646 467.925,257.998C462.508,253.351 459.4,246.39 459.4,237.141L459.4,232.408C459.4,223.158 462.508,216.198 467.926,211.55C473.343,206.902 481.069,204.567 490.303,204.567ZM382.28,340.708L382.28,396.39L945.779,396.39L945.779,340.708L382.28,340.708ZM458.008,417.549C413.545,417.549 385.621,437.512 385.621,471.282C385.621,505.052 413.663,524.737 458.564,524.736L582.456,524.736C591.33,524.736 596.376,527.437 596.376,533.646C596.376,538.976 591.522,542.555 582.178,542.555L474.434,542.555C468.648,542.555 464.333,541.758 461.185,539.794C458.037,537.83 456.058,534.698 454.945,530.026L383.951,530.026C383.951,548.244 391.669,563.556 406.282,574.314C420.895,585.072 442.401,591.276 469.979,591.276L578.558,591.276C628.79,591.276 662.081,570.038 662.081,534.481C662.081,496.258 629.786,478.52 579.115,478.521L462.184,478.521C455.066,478.521 451.047,475.456 451.047,471.004C451.047,466.112 455.065,462.929 462.184,462.93L573.825,462.93C578.497,462.93 582.037,463.806 584.796,465.462C587.555,467.118 589.534,469.554 591.087,472.674L657.626,472.674C657.626,456.448 652.006,442.666 639.104,432.942C626.202,423.217 606.017,417.549 576.888,417.549L458.008,417.549ZM767.319,417.828C739.961,417.827 716.923,425.925 700.724,440.623C684.525,455.321 675.166,476.619 675.166,503.02L675.166,506.361C675.166,532.763 684.526,554.061 700.724,568.759C716.923,583.457 739.961,591.554 767.319,591.554L860.029,591.554C887.387,591.554 910.417,583.457 926.612,568.759C942.807,554.061 952.167,532.763 952.182,506.361L952.182,503.02C952.183,476.619 942.823,455.321 926.624,440.623C910.425,425.925 887.387,417.828 860.029,417.828L767.319,417.828ZM782.632,474.345L844.995,474.345C854.23,474.345 861.956,476.688 867.373,481.339C872.79,485.991 875.899,492.951 875.899,502.185L875.899,506.918C875.899,516.168 872.79,523.128 867.372,527.776C861.955,532.424 854.229,534.759 844.995,534.759L782.632,534.759C773.397,534.759 765.602,532.424 760.115,527.776C754.628,523.128 751.45,516.168 751.45,506.918L751.45,502.185C751.45,492.951 754.628,485.991 760.115,481.339C765.602,476.688 773.397,474.345 782.632,474.345Z" style="fill:white;fill-rule:nonzero;"/>
        </g>
    </g>
</svg>
