<?xml version="1.0" encoding="UTF-8"?>
<svg id="Ebene_1" data-name="Ebene 1" xmlns="http://www.w3.org/2000/svg" viewBox="0 0 464.93 103.82">
  <defs>
    <style>
      .cls-1 {
        fill: #fff;
      }
    </style>
  </defs>
  <path class="cls-1" d="M15.66,63.34H0c.15,4.02,1.06,7.37,2.73,10.03,1.66,2.67,3.79,4.81,6.38,6.44,2.59,1.62,5.55,2.78,8.87,3.48,3.33.7,6.73,1.04,10.21,1.04s6.75-.33,10.03-.99c3.29-.66,6.21-1.8,8.76-3.42,2.55-1.62,4.62-3.77,6.21-6.44s2.38-5.97,2.38-9.92c0-2.78-.54-5.12-1.62-7.02-1.08-1.89-2.51-3.48-4.29-4.76-1.78-1.28-3.81-2.3-6.09-3.07s-4.62-1.43-7.02-1.97c-2.32-.54-4.6-1.04-6.84-1.51-2.24-.46-4.23-.99-5.97-1.57-1.74-.58-3.15-1.33-4.23-2.26-1.08-.93-1.62-2.13-1.62-3.6,0-1.24.31-2.22.93-2.96.62-.73,1.37-1.3,2.26-1.68.89-.39,1.88-.64,2.96-.75,1.08-.12,2.09-.17,3.02-.17,2.94,0,5.49.56,7.66,1.68,2.17,1.12,3.36,3.27,3.6,6.44h15.66c-.31-3.71-1.26-6.79-2.84-9.22-1.59-2.44-3.58-4.39-5.97-5.86s-5.12-2.51-8.18-3.13c-3.05-.62-6.21-.93-9.45-.93s-6.42.29-9.51.87-5.88,1.59-8.35,3.02c-2.47,1.43-4.47,3.38-5.97,5.86s-2.26,5.65-2.26,9.51c0,2.63.54,4.85,1.62,6.67s2.51,3.33,4.29,4.52c1.78,1.2,3.81,2.17,6.09,2.9,2.28.73,4.62,1.37,7.02,1.91,5.88,1.24,10.46,2.47,13.75,3.71,3.29,1.24,4.93,3.09,4.93,5.57,0,1.47-.35,2.69-1.04,3.65-.7.97-1.57,1.74-2.61,2.32-1.04.58-2.2,1.01-3.48,1.28s-2.49.41-3.65.41c-1.62,0-3.19-.19-4.7-.58-1.51-.39-2.84-.99-4-1.8s-2.11-1.86-2.84-3.13c-.73-1.28-1.1-2.8-1.1-4.58Z"/>
  <path class="cls-1" d="M94.77,90.25l25.06-67.4h-17.05l-13.11,41.06h-.23l-13.57-41.06h-17.52l21,56.26c.46,1.16.7,2.4.7,3.71,0,1.78-.52,3.4-1.57,4.87-1.04,1.47-2.65,2.32-4.81,2.55-1.62.08-3.25.04-4.87-.12-1.62-.15-3.21-.31-4.76-.46v13.57c1.7.15,3.38.29,5.05.41,1.66.12,3.34.17,5.05.17,5.65,0,10.05-1.04,13.22-3.13,3.17-2.09,5.65-5.57,7.42-10.44Z"/>
  <path class="cls-1" d="M125.4,22.85v59.97h16.47v-31.44c0-6.11,1.01-10.5,3.02-13.17s5.26-4,9.74-4c3.94,0,6.69,1.22,8.24,3.65,1.55,2.44,2.32,6.13,2.32,11.08v33.87h16.47v-36.89c0-3.71-.33-7.1-.99-10.15-.66-3.05-1.8-5.65-3.42-7.77-1.62-2.13-3.85-3.79-6.67-4.99s-6.44-1.8-10.85-1.8c-3.48,0-6.88.79-10.21,2.38-3.32,1.59-6.03,4.12-8.12,7.6h-.35v-8.35h-15.66Z"/>
  <path class="cls-1" d="M215.06,22.85V4.87h-16.47v17.98h-9.98v11.02h9.98v35.38c0,3.02.5,5.45,1.51,7.31,1,1.86,2.38,3.29,4.12,4.29,1.74,1.01,3.75,1.68,6.03,2.03s4.7.52,7.25.52c1.62,0,3.29-.04,4.99-.12,1.7-.08,3.25-.23,4.64-.46v-12.76c-.77.15-1.59.27-2.44.35-.85.08-1.74.12-2.67.12-2.78,0-4.64-.46-5.57-1.39-.93-.93-1.39-2.78-1.39-5.57v-29.7h12.06v-11.02h-12.06Z"/>
  <path class="cls-1" d="M235.02,0v82.82h16.47v-31.44c0-6.11,1-10.5,3.02-13.17,2.01-2.67,5.26-4,9.74-4,3.94,0,6.69,1.22,8.24,3.65,1.55,2.44,2.32,6.13,2.32,11.08v33.87h16.47v-36.89c0-3.71-.33-7.1-.99-10.15-.66-3.05-1.8-5.65-3.42-7.77-1.62-2.13-3.85-3.79-6.67-4.99s-6.44-1.8-10.85-1.8c-3.09,0-6.26.79-9.51,2.38-3.25,1.59-5.92,4.12-8,7.6h-.35V0h-16.47Z"/>
  <path class="cls-1" d="M316.56,63.34h-15.66c.15,4.02,1.06,7.37,2.73,10.03,1.66,2.67,3.79,4.81,6.38,6.44,2.59,1.62,5.55,2.78,8.87,3.48,3.33.7,6.73,1.04,10.21,1.04s6.75-.33,10.03-.99c3.29-.66,6.21-1.8,8.76-3.42s4.62-3.77,6.21-6.44,2.38-5.97,2.38-9.92c0-2.78-.54-5.12-1.62-7.02s-2.51-3.48-4.29-4.76c-1.78-1.28-3.81-2.3-6.09-3.07s-4.62-1.43-7.02-1.97c-2.32-.54-4.6-1.04-6.84-1.51-2.24-.46-4.23-.99-5.97-1.57-1.74-.58-3.15-1.33-4.23-2.26-1.08-.93-1.62-2.13-1.62-3.6,0-1.24.31-2.22.93-2.96.62-.73,1.37-1.3,2.26-1.68.89-.39,1.88-.64,2.96-.75,1.08-.12,2.09-.17,3.02-.17,2.94,0,5.49.56,7.66,1.68,2.16,1.12,3.36,3.27,3.6,6.44h15.66c-.31-3.71-1.26-6.79-2.84-9.22-1.59-2.44-3.58-4.39-5.97-5.86-2.4-1.47-5.12-2.51-8.18-3.13s-6.21-.93-9.45-.93-6.42.29-9.51.87c-3.09.58-5.88,1.59-8.35,3.02-2.48,1.43-4.47,3.38-5.97,5.86-1.51,2.47-2.26,5.65-2.26,9.51,0,2.63.54,4.85,1.62,6.67,1.08,1.82,2.51,3.33,4.29,4.52s3.81,2.17,6.09,2.9,4.62,1.37,7.02,1.91c5.88,1.24,10.46,2.47,13.75,3.71,3.29,1.24,4.93,3.09,4.93,5.57,0,1.47-.35,2.69-1.04,3.65-.7.97-1.57,1.74-2.61,2.32-1.04.58-2.2,1.01-3.48,1.28s-2.49.41-3.65.41c-1.62,0-3.19-.19-4.7-.58s-2.84-.99-4-1.8-2.11-1.86-2.84-3.13c-.73-1.28-1.1-2.8-1.1-4.58Z"/>
  <polygon class="cls-1" points="362.38 70.41 362.38 82.82 417.48 82.82 417.48 70.41 384.08 70.41 415.28 35.26 415.28 22.85 364.7 22.85 364.7 35.26 393.59 35.26 362.38 70.41"/>
  <path class="cls-1" d="M426.3,22.85v59.97h16.47v-27.03c0-2.71.27-5.22.81-7.54.54-2.32,1.45-4.35,2.73-6.09,1.28-1.74,2.96-3.11,5.05-4.12,2.09-1.01,4.64-1.51,7.66-1.51,1.01,0,2.05.06,3.13.17,1.08.12,2.01.25,2.78.41v-15.31c-1.32-.39-2.51-.58-3.6-.58-2.09,0-4.1.31-6.03.93-1.93.62-3.75,1.49-5.45,2.61-1.7,1.12-3.21,2.47-4.52,4.06-1.32,1.59-2.36,3.31-3.13,5.16h-.23v-11.14h-15.66Z"/>
</svg>